<mxfile host="app.diagrams.net" modified="2021-06-17T17:31:35.108Z" agent="5.0 (Linux; Android 10; CPH1937) AppleWebKit/537.36 (KHTML, like Gecko) Chrome/91.0.4472.101 Mobile Safari/537.36" etag="ngfzhu-wZO1cjHd0XkGC" version="14.8.0" type="github">
  <diagram id="2BMdUJDaaUawKScSyotm" name="Page-1">
    <mxGraphModel dx="652" dy="1106" grid="1" gridSize="10" guides="1" tooltips="1" connect="1" arrows="1" fold="1" page="1" pageScale="1" pageWidth="827" pageHeight="1169" math="0" shadow="0">
      <root>
        <mxCell id="0" />
        <mxCell id="1" parent="0" />
        <mxCell id="oo57pv4aSS4ao6eHqDRw-1" value="Chuyên đề " style="shape=table;startSize=30;container=1;collapsible=1;childLayout=tableLayout;fixedRows=1;rowLines=0;fontStyle=1;align=center;resizeLast=1;" vertex="1" parent="1">
          <mxGeometry x="100" y="20" width="180" height="150" as="geometry" />
        </mxCell>
        <mxCell id="oo57pv4aSS4ao6eHqDRw-2" value="" style="shape=partialRectangle;collapsible=0;dropTarget=0;pointerEvents=0;fillColor=none;top=0;left=0;bottom=1;right=0;points=[[0,0.5],[1,0.5]];portConstraint=eastwest;" vertex="1" parent="oo57pv4aSS4ao6eHqDRw-1">
          <mxGeometry y="30" width="180" height="30" as="geometry" />
        </mxCell>
        <mxCell id="oo57pv4aSS4ao6eHqDRw-3" value="PK,FK" style="shape=partialRectangle;connectable=0;fillColor=none;top=0;left=0;bottom=0;right=0;fontStyle=1;overflow=hidden;" vertex="1" parent="oo57pv4aSS4ao6eHqDRw-2">
          <mxGeometry width="30" height="30" as="geometry" />
        </mxCell>
        <mxCell id="oo57pv4aSS4ao6eHqDRw-4" value="Mã chuyên đề" style="shape=partialRectangle;connectable=0;fillColor=none;top=0;left=0;bottom=0;right=0;align=left;spacingLeft=6;fontStyle=5;overflow=hidden;" vertex="1" parent="oo57pv4aSS4ao6eHqDRw-2">
          <mxGeometry x="30" width="150" height="30" as="geometry" />
        </mxCell>
        <mxCell id="oo57pv4aSS4ao6eHqDRw-5" value="" style="shape=partialRectangle;collapsible=0;dropTarget=0;pointerEvents=0;fillColor=none;top=0;left=0;bottom=0;right=0;points=[[0,0.5],[1,0.5]];portConstraint=eastwest;" vertex="1" parent="oo57pv4aSS4ao6eHqDRw-1">
          <mxGeometry y="60" width="180" height="30" as="geometry" />
        </mxCell>
        <mxCell id="oo57pv4aSS4ao6eHqDRw-6" value="" style="shape=partialRectangle;connectable=0;fillColor=none;top=0;left=0;bottom=0;right=0;editable=1;overflow=hidden;" vertex="1" parent="oo57pv4aSS4ao6eHqDRw-5">
          <mxGeometry width="30" height="30" as="geometry" />
        </mxCell>
        <mxCell id="oo57pv4aSS4ao6eHqDRw-7" value="Tên chuyên đề" style="shape=partialRectangle;connectable=0;fillColor=none;top=0;left=0;bottom=0;right=0;align=left;spacingLeft=6;overflow=hidden;" vertex="1" parent="oo57pv4aSS4ao6eHqDRw-5">
          <mxGeometry x="30" width="150" height="30" as="geometry" />
        </mxCell>
        <mxCell id="oo57pv4aSS4ao6eHqDRw-8" value="" style="shape=partialRectangle;collapsible=0;dropTarget=0;pointerEvents=0;fillColor=none;top=0;left=0;bottom=0;right=0;points=[[0,0.5],[1,0.5]];portConstraint=eastwest;" vertex="1" parent="oo57pv4aSS4ao6eHqDRw-1">
          <mxGeometry y="90" width="180" height="50" as="geometry" />
        </mxCell>
        <mxCell id="oo57pv4aSS4ao6eHqDRw-9" value="" style="shape=partialRectangle;connectable=0;fillColor=none;top=0;left=0;bottom=0;right=0;editable=1;overflow=hidden;" vertex="1" parent="oo57pv4aSS4ao6eHqDRw-8">
          <mxGeometry width="30" height="50" as="geometry" />
        </mxCell>
        <mxCell id="oo57pv4aSS4ao6eHqDRw-10" value="Số sinh viên tối đa 1 lớp &#xa;Chuyên đề" style="shape=partialRectangle;connectable=0;fillColor=none;top=0;left=0;bottom=0;right=0;align=left;spacingLeft=6;overflow=hidden;" vertex="1" parent="oo57pv4aSS4ao6eHqDRw-8">
          <mxGeometry x="30" width="150" height="50" as="geometry" />
        </mxCell>
        <mxCell id="oo57pv4aSS4ao6eHqDRw-27" value="Sinh viên " style="shape=table;startSize=50;container=1;collapsible=1;childLayout=tableLayout;fixedRows=1;rowLines=0;fontStyle=1;align=center;resizeLast=1;" vertex="1" parent="1">
          <mxGeometry x="330" y="40" width="180" height="200" as="geometry" />
        </mxCell>
        <mxCell id="oo57pv4aSS4ao6eHqDRw-28" value="" style="shape=partialRectangle;collapsible=0;dropTarget=0;pointerEvents=0;fillColor=none;top=0;left=0;bottom=1;right=0;points=[[0,0.5],[1,0.5]];portConstraint=eastwest;" vertex="1" parent="oo57pv4aSS4ao6eHqDRw-27">
          <mxGeometry y="50" width="180" height="30" as="geometry" />
        </mxCell>
        <mxCell id="oo57pv4aSS4ao6eHqDRw-29" value="PK,FK" style="shape=partialRectangle;connectable=0;fillColor=none;top=0;left=0;bottom=0;right=0;fontStyle=1;overflow=hidden;" vertex="1" parent="oo57pv4aSS4ao6eHqDRw-28">
          <mxGeometry width="30" height="30" as="geometry" />
        </mxCell>
        <mxCell id="oo57pv4aSS4ao6eHqDRw-30" value="Mã sinh viên " style="shape=partialRectangle;connectable=0;fillColor=none;top=0;left=0;bottom=0;right=0;align=left;spacingLeft=6;fontStyle=5;overflow=hidden;" vertex="1" parent="oo57pv4aSS4ao6eHqDRw-28">
          <mxGeometry x="30" width="150" height="30" as="geometry" />
        </mxCell>
        <mxCell id="oo57pv4aSS4ao6eHqDRw-31" value="" style="shape=partialRectangle;collapsible=0;dropTarget=0;pointerEvents=0;fillColor=none;top=0;left=0;bottom=0;right=0;points=[[0,0.5],[1,0.5]];portConstraint=eastwest;" vertex="1" parent="oo57pv4aSS4ao6eHqDRw-27">
          <mxGeometry y="80" width="180" height="30" as="geometry" />
        </mxCell>
        <mxCell id="oo57pv4aSS4ao6eHqDRw-32" value="" style="shape=partialRectangle;connectable=0;fillColor=none;top=0;left=0;bottom=0;right=0;editable=1;overflow=hidden;" vertex="1" parent="oo57pv4aSS4ao6eHqDRw-31">
          <mxGeometry width="30" height="30" as="geometry" />
        </mxCell>
        <mxCell id="oo57pv4aSS4ao6eHqDRw-33" value="Giới tính" style="shape=partialRectangle;connectable=0;fillColor=none;top=0;left=0;bottom=0;right=0;align=left;spacingLeft=6;overflow=hidden;" vertex="1" parent="oo57pv4aSS4ao6eHqDRw-31">
          <mxGeometry x="30" width="150" height="30" as="geometry" />
        </mxCell>
        <mxCell id="oo57pv4aSS4ao6eHqDRw-34" value="" style="shape=partialRectangle;collapsible=0;dropTarget=0;pointerEvents=0;fillColor=none;top=0;left=0;bottom=0;right=0;points=[[0,0.5],[1,0.5]];portConstraint=eastwest;" vertex="1" parent="oo57pv4aSS4ao6eHqDRw-27">
          <mxGeometry y="110" width="180" height="30" as="geometry" />
        </mxCell>
        <mxCell id="oo57pv4aSS4ao6eHqDRw-35" value="" style="shape=partialRectangle;connectable=0;fillColor=none;top=0;left=0;bottom=0;right=0;editable=1;overflow=hidden;" vertex="1" parent="oo57pv4aSS4ao6eHqDRw-34">
          <mxGeometry width="30" height="30" as="geometry" />
        </mxCell>
        <mxCell id="oo57pv4aSS4ao6eHqDRw-36" value="Ngày sinh" style="shape=partialRectangle;connectable=0;fillColor=none;top=0;left=0;bottom=0;right=0;align=left;spacingLeft=6;overflow=hidden;" vertex="1" parent="oo57pv4aSS4ao6eHqDRw-34">
          <mxGeometry x="30" width="150" height="30" as="geometry" />
        </mxCell>
        <mxCell id="oo57pv4aSS4ao6eHqDRw-37" value="" style="shape=partialRectangle;collapsible=0;dropTarget=0;pointerEvents=0;fillColor=none;top=0;left=0;bottom=0;right=0;points=[[0,0.5],[1,0.5]];portConstraint=eastwest;" vertex="1" parent="oo57pv4aSS4ao6eHqDRw-27">
          <mxGeometry y="140" width="180" height="30" as="geometry" />
        </mxCell>
        <mxCell id="oo57pv4aSS4ao6eHqDRw-38" value="" style="shape=partialRectangle;connectable=0;fillColor=none;top=0;left=0;bottom=0;right=0;editable=1;overflow=hidden;" vertex="1" parent="oo57pv4aSS4ao6eHqDRw-37">
          <mxGeometry width="30" height="30" as="geometry" />
        </mxCell>
        <mxCell id="oo57pv4aSS4ao6eHqDRw-39" value="Địa chỉ" style="shape=partialRectangle;connectable=0;fillColor=none;top=0;left=0;bottom=0;right=0;align=left;spacingLeft=6;overflow=hidden;" vertex="1" parent="oo57pv4aSS4ao6eHqDRw-37">
          <mxGeometry x="30" width="150" height="30" as="geometry" />
        </mxCell>
        <mxCell id="oo57pv4aSS4ao6eHqDRw-66" value="" style="shape=partialRectangle;collapsible=0;dropTarget=0;pointerEvents=0;fillColor=none;top=0;left=0;bottom=0;right=0;points=[[0,0.5],[1,0.5]];portConstraint=eastwest;" vertex="1" parent="oo57pv4aSS4ao6eHqDRw-27">
          <mxGeometry y="170" width="180" height="30" as="geometry" />
        </mxCell>
        <mxCell id="oo57pv4aSS4ao6eHqDRw-67" value="FK" style="shape=partialRectangle;connectable=0;fillColor=none;top=0;left=0;bottom=0;right=0;editable=1;overflow=hidden;" vertex="1" parent="oo57pv4aSS4ao6eHqDRw-66">
          <mxGeometry width="30" height="30" as="geometry" />
        </mxCell>
        <mxCell id="oo57pv4aSS4ao6eHqDRw-68" value="Mã nghành" style="shape=partialRectangle;connectable=0;fillColor=none;top=0;left=0;bottom=0;right=0;align=left;spacingLeft=6;overflow=hidden;" vertex="1" parent="oo57pv4aSS4ao6eHqDRw-66">
          <mxGeometry x="30" width="150" height="30" as="geometry" />
        </mxCell>
        <mxCell id="oo57pv4aSS4ao6eHqDRw-40" value="Nghành học" style="shape=table;startSize=30;container=1;collapsible=1;childLayout=tableLayout;fixedRows=1;rowLines=0;fontStyle=1;align=center;resizeLast=1;" vertex="1" parent="1">
          <mxGeometry x="600" y="40" width="180" height="190" as="geometry" />
        </mxCell>
        <mxCell id="oo57pv4aSS4ao6eHqDRw-41" value="" style="shape=partialRectangle;collapsible=0;dropTarget=0;pointerEvents=0;fillColor=none;top=0;left=0;bottom=1;right=0;points=[[0,0.5],[1,0.5]];portConstraint=eastwest;" vertex="1" parent="oo57pv4aSS4ao6eHqDRw-40">
          <mxGeometry y="30" width="180" height="30" as="geometry" />
        </mxCell>
        <mxCell id="oo57pv4aSS4ao6eHqDRw-42" value="PK,FK" style="shape=partialRectangle;connectable=0;fillColor=none;top=0;left=0;bottom=0;right=0;fontStyle=1;overflow=hidden;" vertex="1" parent="oo57pv4aSS4ao6eHqDRw-41">
          <mxGeometry width="30" height="30" as="geometry" />
        </mxCell>
        <mxCell id="oo57pv4aSS4ao6eHqDRw-43" value="Mã nghành " style="shape=partialRectangle;connectable=0;fillColor=none;top=0;left=0;bottom=0;right=0;align=left;spacingLeft=6;fontStyle=5;overflow=hidden;" vertex="1" parent="oo57pv4aSS4ao6eHqDRw-41">
          <mxGeometry x="30" width="150" height="30" as="geometry" />
        </mxCell>
        <mxCell id="oo57pv4aSS4ao6eHqDRw-44" value="" style="shape=partialRectangle;collapsible=0;dropTarget=0;pointerEvents=0;fillColor=none;top=0;left=0;bottom=0;right=0;points=[[0,0.5],[1,0.5]];portConstraint=eastwest;" vertex="1" parent="oo57pv4aSS4ao6eHqDRw-40">
          <mxGeometry y="60" width="180" height="30" as="geometry" />
        </mxCell>
        <mxCell id="oo57pv4aSS4ao6eHqDRw-45" value="" style="shape=partialRectangle;connectable=0;fillColor=none;top=0;left=0;bottom=0;right=0;editable=1;overflow=hidden;" vertex="1" parent="oo57pv4aSS4ao6eHqDRw-44">
          <mxGeometry width="30" height="30" as="geometry" />
        </mxCell>
        <mxCell id="oo57pv4aSS4ao6eHqDRw-46" value="Tên nghành" style="shape=partialRectangle;connectable=0;fillColor=none;top=0;left=0;bottom=0;right=0;align=left;spacingLeft=6;overflow=hidden;" vertex="1" parent="oo57pv4aSS4ao6eHqDRw-44">
          <mxGeometry x="30" width="150" height="30" as="geometry" />
        </mxCell>
        <mxCell id="oo57pv4aSS4ao6eHqDRw-50" value="" style="shape=partialRectangle;collapsible=0;dropTarget=0;pointerEvents=0;fillColor=none;top=0;left=0;bottom=0;right=0;points=[[0,0.5],[1,0.5]];portConstraint=eastwest;" vertex="1" parent="oo57pv4aSS4ao6eHqDRw-40">
          <mxGeometry y="90" width="180" height="50" as="geometry" />
        </mxCell>
        <mxCell id="oo57pv4aSS4ao6eHqDRw-51" value="" style="shape=partialRectangle;connectable=0;fillColor=none;top=0;left=0;bottom=0;right=0;editable=1;overflow=hidden;" vertex="1" parent="oo57pv4aSS4ao6eHqDRw-50">
          <mxGeometry width="30" height="50" as="geometry" />
        </mxCell>
        <mxCell id="oo57pv4aSS4ao6eHqDRw-52" value="Tổng số sv đã từng học" style="shape=partialRectangle;connectable=0;fillColor=none;top=0;left=0;bottom=0;right=0;align=left;spacingLeft=6;overflow=hidden;" vertex="1" parent="oo57pv4aSS4ao6eHqDRw-50">
          <mxGeometry x="30" width="150" height="50" as="geometry" />
        </mxCell>
        <mxCell id="oo57pv4aSS4ao6eHqDRw-47" value="" style="shape=partialRectangle;collapsible=0;dropTarget=0;pointerEvents=0;fillColor=none;top=0;left=0;bottom=0;right=0;points=[[0,0.5],[1,0.5]];portConstraint=eastwest;" vertex="1" parent="oo57pv4aSS4ao6eHqDRw-40">
          <mxGeometry y="140" width="180" height="30" as="geometry" />
        </mxCell>
        <mxCell id="oo57pv4aSS4ao6eHqDRw-48" value="FK" style="shape=partialRectangle;connectable=0;fillColor=none;top=0;left=0;bottom=0;right=0;editable=1;overflow=hidden;" vertex="1" parent="oo57pv4aSS4ao6eHqDRw-47">
          <mxGeometry width="30" height="30" as="geometry" />
        </mxCell>
        <mxCell id="oo57pv4aSS4ao6eHqDRw-49" value="Số chuyên đề tối đa " style="shape=partialRectangle;connectable=0;fillColor=none;top=0;left=0;bottom=0;right=0;align=left;spacingLeft=6;overflow=hidden;" vertex="1" parent="oo57pv4aSS4ao6eHqDRw-47">
          <mxGeometry x="30" width="150" height="30" as="geometry" />
        </mxCell>
        <mxCell id="oo57pv4aSS4ao6eHqDRw-53" value="Năm học" style="shape=table;startSize=30;container=1;collapsible=1;childLayout=tableLayout;fixedRows=1;rowLines=0;fontStyle=1;align=center;resizeLast=1;" vertex="1" parent="1">
          <mxGeometry x="330" y="330" width="180" height="100" as="geometry" />
        </mxCell>
        <mxCell id="oo57pv4aSS4ao6eHqDRw-54" value="" style="shape=partialRectangle;collapsible=0;dropTarget=0;pointerEvents=0;fillColor=none;top=0;left=0;bottom=1;right=0;points=[[0,0.5],[1,0.5]];portConstraint=eastwest;" vertex="1" parent="oo57pv4aSS4ao6eHqDRw-53">
          <mxGeometry y="30" width="180" height="30" as="geometry" />
        </mxCell>
        <mxCell id="oo57pv4aSS4ao6eHqDRw-55" value="PK" style="shape=partialRectangle;connectable=0;fillColor=none;top=0;left=0;bottom=0;right=0;fontStyle=1;overflow=hidden;" vertex="1" parent="oo57pv4aSS4ao6eHqDRw-54">
          <mxGeometry width="30" height="30" as="geometry" />
        </mxCell>
        <mxCell id="oo57pv4aSS4ao6eHqDRw-56" value="Năm học" style="shape=partialRectangle;connectable=0;fillColor=none;top=0;left=0;bottom=0;right=0;align=left;spacingLeft=6;fontStyle=5;overflow=hidden;" vertex="1" parent="oo57pv4aSS4ao6eHqDRw-54">
          <mxGeometry x="30" width="150" height="30" as="geometry" />
        </mxCell>
        <mxCell id="oo57pv4aSS4ao6eHqDRw-57" value="" style="shape=partialRectangle;collapsible=0;dropTarget=0;pointerEvents=0;fillColor=none;top=0;left=0;bottom=0;right=0;points=[[0,0.5],[1,0.5]];portConstraint=eastwest;" vertex="1" parent="oo57pv4aSS4ao6eHqDRw-53">
          <mxGeometry y="60" width="180" height="30" as="geometry" />
        </mxCell>
        <mxCell id="oo57pv4aSS4ao6eHqDRw-58" value="FK" style="shape=partialRectangle;connectable=0;fillColor=none;top=0;left=0;bottom=0;right=0;editable=1;overflow=hidden;" vertex="1" parent="oo57pv4aSS4ao6eHqDRw-57">
          <mxGeometry width="30" height="30" as="geometry" />
        </mxCell>
        <mxCell id="oo57pv4aSS4ao6eHqDRw-59" value="Học kì" style="shape=partialRectangle;connectable=0;fillColor=none;top=0;left=0;bottom=0;right=0;align=left;spacingLeft=6;overflow=hidden;" vertex="1" parent="oo57pv4aSS4ao6eHqDRw-57">
          <mxGeometry x="30" width="150" height="30" as="geometry" />
        </mxCell>
        <mxCell id="oo57pv4aSS4ao6eHqDRw-69" value="Đăng kí" style="shape=table;startSize=25;container=1;collapsible=1;childLayout=tableLayout;fixedRows=1;rowLines=0;fontStyle=1;align=center;resizeLast=1;" vertex="1" parent="1">
          <mxGeometry x="20" y="199" width="200" height="231" as="geometry" />
        </mxCell>
        <mxCell id="oo57pv4aSS4ao6eHqDRw-70" value="" style="shape=partialRectangle;collapsible=0;dropTarget=0;pointerEvents=0;fillColor=none;top=0;left=0;bottom=0;right=0;points=[[0,0.5],[1,0.5]];portConstraint=eastwest;" vertex="1" parent="oo57pv4aSS4ao6eHqDRw-69">
          <mxGeometry y="25" width="200" height="30" as="geometry" />
        </mxCell>
        <mxCell id="oo57pv4aSS4ao6eHqDRw-71" value="PK,FK1" style="shape=partialRectangle;connectable=0;fillColor=none;top=0;left=0;bottom=0;right=0;fontStyle=1;overflow=hidden;" vertex="1" parent="oo57pv4aSS4ao6eHqDRw-70">
          <mxGeometry width="60" height="30" as="geometry" />
        </mxCell>
        <mxCell id="oo57pv4aSS4ao6eHqDRw-72" value="Mã sinh viên" style="shape=partialRectangle;connectable=0;fillColor=none;top=0;left=0;bottom=0;right=0;align=left;spacingLeft=6;fontStyle=5;overflow=hidden;" vertex="1" parent="oo57pv4aSS4ao6eHqDRw-70">
          <mxGeometry x="60" width="140" height="30" as="geometry" />
        </mxCell>
        <mxCell id="oo57pv4aSS4ao6eHqDRw-73" value="" style="shape=partialRectangle;collapsible=0;dropTarget=0;pointerEvents=0;fillColor=none;top=0;left=0;bottom=1;right=0;points=[[0,0.5],[1,0.5]];portConstraint=eastwest;" vertex="1" parent="oo57pv4aSS4ao6eHqDRw-69">
          <mxGeometry y="55" width="200" height="30" as="geometry" />
        </mxCell>
        <mxCell id="oo57pv4aSS4ao6eHqDRw-74" value="PK,FK2" style="shape=partialRectangle;connectable=0;fillColor=none;top=0;left=0;bottom=0;right=0;fontStyle=1;overflow=hidden;" vertex="1" parent="oo57pv4aSS4ao6eHqDRw-73">
          <mxGeometry width="60" height="30" as="geometry" />
        </mxCell>
        <mxCell id="oo57pv4aSS4ao6eHqDRw-75" value="Mã chuyên đề" style="shape=partialRectangle;connectable=0;fillColor=none;top=0;left=0;bottom=0;right=0;align=left;spacingLeft=6;fontStyle=5;overflow=hidden;" vertex="1" parent="oo57pv4aSS4ao6eHqDRw-73">
          <mxGeometry x="60" width="140" height="30" as="geometry" />
        </mxCell>
        <mxCell id="oo57pv4aSS4ao6eHqDRw-76" value="" style="shape=partialRectangle;collapsible=0;dropTarget=0;pointerEvents=0;fillColor=none;top=0;left=0;bottom=0;right=0;points=[[0,0.5],[1,0.5]];portConstraint=eastwest;" vertex="1" parent="oo57pv4aSS4ao6eHqDRw-69">
          <mxGeometry y="85" width="200" height="50" as="geometry" />
        </mxCell>
        <mxCell id="oo57pv4aSS4ao6eHqDRw-77" value="" style="shape=partialRectangle;connectable=0;fillColor=none;top=0;left=0;bottom=0;right=0;editable=1;overflow=hidden;" vertex="1" parent="oo57pv4aSS4ao6eHqDRw-76">
          <mxGeometry width="60" height="50" as="geometry" />
        </mxCell>
        <mxCell id="oo57pv4aSS4ao6eHqDRw-78" value="Số chuyên đề đã học" style="shape=partialRectangle;connectable=0;fillColor=none;top=0;left=0;bottom=0;right=0;align=left;spacingLeft=6;overflow=hidden;" vertex="1" parent="oo57pv4aSS4ao6eHqDRw-76">
          <mxGeometry x="60" width="140" height="50" as="geometry" />
        </mxCell>
        <mxCell id="oo57pv4aSS4ao6eHqDRw-91" value="" style="shape=partialRectangle;collapsible=0;dropTarget=0;pointerEvents=0;fillColor=none;top=0;left=0;bottom=0;right=0;points=[[0,0.5],[1,0.5]];portConstraint=eastwest;" vertex="1" parent="oo57pv4aSS4ao6eHqDRw-69">
          <mxGeometry y="135" width="200" height="30" as="geometry" />
        </mxCell>
        <mxCell id="oo57pv4aSS4ao6eHqDRw-92" value="" style="shape=partialRectangle;connectable=0;fillColor=none;top=0;left=0;bottom=0;right=0;fontStyle=0;overflow=hidden;" vertex="1" parent="oo57pv4aSS4ao6eHqDRw-91">
          <mxGeometry width="60" height="30" as="geometry" />
        </mxCell>
        <mxCell id="oo57pv4aSS4ao6eHqDRw-93" value="Số chuyên đề đăng kí " style="shape=partialRectangle;connectable=0;fillColor=none;top=0;left=0;bottom=0;right=0;align=left;spacingLeft=6;fontStyle=0;overflow=hidden;" vertex="1" parent="oo57pv4aSS4ao6eHqDRw-91">
          <mxGeometry x="60" width="140" height="30" as="geometry" />
        </mxCell>
        <mxCell id="oo57pv4aSS4ao6eHqDRw-83" value="" style="shape=partialRectangle;collapsible=0;dropTarget=0;pointerEvents=0;fillColor=none;top=0;left=0;bottom=0;right=0;points=[[0,0.5],[1,0.5]];portConstraint=eastwest;" vertex="1" parent="oo57pv4aSS4ao6eHqDRw-69">
          <mxGeometry y="165" width="200" height="30" as="geometry" />
        </mxCell>
        <mxCell id="oo57pv4aSS4ao6eHqDRw-84" value="FK" style="shape=partialRectangle;connectable=0;fillColor=none;top=0;left=0;bottom=0;right=0;fontStyle=0;overflow=hidden;" vertex="1" parent="oo57pv4aSS4ao6eHqDRw-83">
          <mxGeometry width="60" height="30" as="geometry" />
        </mxCell>
        <mxCell id="oo57pv4aSS4ao6eHqDRw-85" value="Học kì" style="shape=partialRectangle;connectable=0;fillColor=none;top=0;left=0;bottom=0;right=0;align=left;spacingLeft=6;fontStyle=0;overflow=hidden;" vertex="1" parent="oo57pv4aSS4ao6eHqDRw-83">
          <mxGeometry x="60" width="140" height="30" as="geometry" />
        </mxCell>
        <mxCell id="oo57pv4aSS4ao6eHqDRw-79" value="" style="shape=partialRectangle;collapsible=0;dropTarget=0;pointerEvents=0;fillColor=none;top=0;left=0;bottom=0;right=0;points=[[0,0.5],[1,0.5]];portConstraint=eastwest;" vertex="1" parent="oo57pv4aSS4ao6eHqDRw-69">
          <mxGeometry y="195" width="200" height="36" as="geometry" />
        </mxCell>
        <mxCell id="oo57pv4aSS4ao6eHqDRw-80" value="FK" style="shape=partialRectangle;connectable=0;fillColor=none;top=0;left=0;bottom=0;right=0;editable=1;overflow=hidden;" vertex="1" parent="oo57pv4aSS4ao6eHqDRw-79">
          <mxGeometry width="60" height="36" as="geometry" />
        </mxCell>
        <mxCell id="oo57pv4aSS4ao6eHqDRw-81" value="Số chuyên đề tối đa" style="shape=partialRectangle;connectable=0;fillColor=none;top=0;left=0;bottom=0;right=0;align=left;spacingLeft=6;overflow=hidden;" vertex="1" parent="oo57pv4aSS4ao6eHqDRw-79">
          <mxGeometry x="60" width="140" height="36" as="geometry" />
        </mxCell>
        <mxCell id="oo57pv4aSS4ao6eHqDRw-101" style="edgeStyle=orthogonalEdgeStyle;rounded=0;orthogonalLoop=1;jettySize=auto;html=1;entryX=1;entryY=0.5;entryDx=0;entryDy=0;dashed=1;startArrow=ERmandOne;startFill=0;endArrow=ERoneToMany;endFill=0;" edge="1" parent="1" source="oo57pv4aSS4ao6eHqDRw-41" target="oo57pv4aSS4ao6eHqDRw-66">
          <mxGeometry relative="1" as="geometry" />
        </mxCell>
        <mxCell id="oo57pv4aSS4ao6eHqDRw-102" style="edgeStyle=orthogonalEdgeStyle;rounded=0;orthogonalLoop=1;jettySize=auto;html=1;entryX=1;entryY=0.5;entryDx=0;entryDy=0;startArrow=ERmandOne;startFill=0;endArrow=ERoneToMany;endFill=0;" edge="1" parent="1" source="oo57pv4aSS4ao6eHqDRw-28" target="oo57pv4aSS4ao6eHqDRw-70">
          <mxGeometry relative="1" as="geometry">
            <Array as="points">
              <mxPoint x="310" y="105" />
              <mxPoint x="310" y="239" />
            </Array>
          </mxGeometry>
        </mxCell>
        <mxCell id="oo57pv4aSS4ao6eHqDRw-103" style="edgeStyle=orthogonalEdgeStyle;rounded=0;orthogonalLoop=1;jettySize=auto;html=1;entryX=0;entryY=0.5;entryDx=0;entryDy=0;startArrow=ERmandOne;startFill=0;endArrow=ERoneToMany;endFill=0;" edge="1" parent="1" source="oo57pv4aSS4ao6eHqDRw-2" target="oo57pv4aSS4ao6eHqDRw-73">
          <mxGeometry relative="1" as="geometry">
            <Array as="points">
              <mxPoint x="10" y="65" />
              <mxPoint x="10" y="269" />
            </Array>
          </mxGeometry>
        </mxCell>
        <mxCell id="oo57pv4aSS4ao6eHqDRw-104" style="edgeStyle=orthogonalEdgeStyle;rounded=0;orthogonalLoop=1;jettySize=auto;html=1;entryX=1;entryY=0.5;entryDx=0;entryDy=0;startArrow=ERone;startFill=0;endArrow=ERmandOne;endFill=0;dashed=1;" edge="1" parent="1" source="oo57pv4aSS4ao6eHqDRw-57" target="oo57pv4aSS4ao6eHqDRw-83">
          <mxGeometry relative="1" as="geometry" />
        </mxCell>
        <mxCell id="oo57pv4aSS4ao6eHqDRw-106" style="edgeStyle=orthogonalEdgeStyle;rounded=0;orthogonalLoop=1;jettySize=auto;html=1;dashed=1;startArrow=ERone;startFill=0;endArrow=ERmany;endFill=0;" edge="1" parent="1" source="oo57pv4aSS4ao6eHqDRw-47" target="oo57pv4aSS4ao6eHqDRw-79">
          <mxGeometry relative="1" as="geometry">
            <Array as="points">
              <mxPoint x="800" y="195" />
              <mxPoint x="800" y="450" />
              <mxPoint x="250" y="450" />
              <mxPoint x="250" y="412" />
            </Array>
          </mxGeometry>
        </mxCell>
      </root>
    </mxGraphModel>
  </diagram>
</mxfile>
